<svg width="1728" height="812" viewBox="0 0 1728 812" fill="none" xmlns="http://www.w3.org/2000/svg">
<g clip-path="url(#clip0_98_136)">
<rect x="-6" y="95" width="339" height="116.229" rx="29.0571" fill="#FFDCE2"/>
<path d="M63.1987 175.755L59.6876 172.559C47.2172 161.251 38.9844 153.768 38.9844 144.64C38.9844 137.157 44.8442 131.322 52.3022 131.322C56.5155 131.322 60.5593 133.283 63.1987 136.358C65.838 133.283 69.8818 131.322 74.0951 131.322C81.5531 131.322 87.4129 137.157 87.4129 144.64C87.4129 153.768 79.1801 161.251 66.7097 172.559L63.1987 175.755Z" fill="#FF3357"/>
<path d="M130.855 152.508L125.489 152.838C125.398 152.379 125.201 151.967 124.898 151.6C124.595 151.224 124.196 150.926 123.701 150.706C123.215 150.476 122.632 150.362 121.954 150.362C121.046 150.362 120.28 150.554 119.656 150.939C119.032 151.315 118.72 151.82 118.72 152.453C118.72 152.957 118.922 153.384 119.326 153.732C119.729 154.081 120.422 154.361 121.403 154.572L125.228 155.342C127.283 155.764 128.814 156.443 129.823 157.378C130.832 158.314 131.337 159.543 131.337 161.065C131.337 162.45 130.928 163.666 130.112 164.711C129.305 165.757 128.195 166.573 126.783 167.16C125.379 167.738 123.761 168.027 121.926 168.027C119.129 168.027 116.9 167.445 115.24 166.28C113.589 165.106 112.621 163.51 112.337 161.492L118.101 161.189C118.276 162.042 118.698 162.693 119.367 163.143C120.037 163.583 120.894 163.803 121.94 163.803C122.967 163.803 123.793 163.606 124.416 163.212C125.049 162.808 125.37 162.29 125.379 161.657C125.37 161.125 125.145 160.689 124.705 160.35C124.265 160.001 123.586 159.735 122.669 159.552L119.009 158.823C116.946 158.41 115.409 157.695 114.4 156.677C113.401 155.658 112.901 154.361 112.901 152.783C112.901 151.426 113.268 150.256 114.001 149.275C114.744 148.293 115.785 147.537 117.125 147.005C118.473 146.473 120.05 146.207 121.857 146.207C124.526 146.207 126.627 146.771 128.159 147.899C129.699 149.027 130.598 150.563 130.855 152.508ZM144.658 168.027C142.484 168.027 140.613 167.587 139.045 166.706C137.485 165.817 136.284 164.56 135.44 162.936C134.596 161.304 134.174 159.373 134.174 157.144C134.174 154.971 134.596 153.063 135.44 151.421C136.284 149.779 137.472 148.5 139.003 147.582C140.544 146.665 142.351 146.207 144.424 146.207C145.818 146.207 147.116 146.431 148.318 146.881C149.528 147.321 150.583 147.986 151.482 148.876C152.39 149.765 153.096 150.884 153.601 152.233C154.105 153.572 154.357 155.14 154.357 156.938V158.548H136.513V154.916H148.84C148.84 154.072 148.657 153.324 148.29 152.673C147.923 152.022 147.414 151.513 146.763 151.146C146.121 150.77 145.373 150.582 144.52 150.582C143.631 150.582 142.842 150.788 142.154 151.201C141.475 151.604 140.943 152.15 140.558 152.838C140.173 153.517 139.976 154.273 139.966 155.108V158.561C139.966 159.607 140.159 160.51 140.544 161.272C140.939 162.033 141.494 162.62 142.209 163.033C142.924 163.446 143.773 163.652 144.754 163.652C145.405 163.652 146.002 163.56 146.543 163.377C147.084 163.193 147.547 162.918 147.932 162.551C148.318 162.184 148.611 161.735 148.813 161.203L154.234 161.561C153.958 162.863 153.394 164 152.541 164.973C151.698 165.936 150.606 166.688 149.267 167.229C147.937 167.761 146.401 168.027 144.658 168.027ZM164.043 139.438V167.614H158.182V139.438H164.043ZM180.102 146.482V150.884H167.06V146.482H180.102ZM170.045 167.614V144.955C170.045 143.423 170.343 142.153 170.939 141.144C171.545 140.135 172.37 139.378 173.416 138.874C174.461 138.369 175.649 138.117 176.979 138.117C177.878 138.117 178.699 138.186 179.442 138.323C180.194 138.461 180.754 138.585 181.12 138.695L180.075 143.097C179.845 143.024 179.561 142.955 179.222 142.891C178.892 142.827 178.552 142.795 178.204 142.795C177.342 142.795 176.741 142.996 176.401 143.4C176.062 143.794 175.892 144.349 175.892 145.065V167.614H170.045ZM196.093 153.719V158.369H183.243V153.719H196.093ZM210.635 168.027C208.47 168.027 206.608 167.568 205.049 166.651C203.499 165.725 202.307 164.441 201.472 162.799C200.647 161.157 200.234 159.268 200.234 157.131C200.234 154.966 200.651 153.067 201.486 151.435C202.33 149.793 203.527 148.513 205.077 147.596C206.627 146.67 208.47 146.207 210.607 146.207C212.451 146.207 214.065 146.541 215.45 147.211C216.835 147.881 217.931 148.821 218.739 150.031C219.546 151.242 219.991 152.664 220.073 154.296H214.542C214.386 153.242 213.974 152.393 213.304 151.751C212.644 151.1 211.777 150.774 210.704 150.774C209.796 150.774 209.002 151.022 208.324 151.517C207.654 152.003 207.131 152.714 206.755 153.65C206.379 154.585 206.191 155.718 206.191 157.048C206.191 158.396 206.375 159.543 206.741 160.488C207.118 161.432 207.645 162.152 208.324 162.648C209.002 163.143 209.796 163.391 210.704 163.391C211.373 163.391 211.974 163.253 212.506 162.978C213.047 162.703 213.492 162.304 213.841 161.781C214.198 161.249 214.432 160.611 214.542 159.868H220.073C219.981 161.483 219.541 162.904 218.752 164.133C217.973 165.353 216.895 166.307 215.519 166.995C214.143 167.683 212.515 168.027 210.635 168.027ZM229.852 168.013C228.503 168.013 227.302 167.779 226.247 167.312C225.192 166.835 224.358 166.133 223.743 165.207C223.138 164.271 222.835 163.106 222.835 161.712C222.835 160.538 223.051 159.552 223.482 158.754C223.913 157.956 224.5 157.314 225.243 156.828C225.986 156.342 226.829 155.975 227.774 155.727C228.728 155.48 229.728 155.305 230.773 155.204C232.003 155.076 232.993 154.957 233.745 154.847C234.497 154.727 235.043 154.553 235.382 154.324C235.722 154.095 235.891 153.755 235.891 153.306V153.223C235.891 152.352 235.616 151.678 235.066 151.201C234.525 150.724 233.754 150.485 232.755 150.485C231.7 150.485 230.861 150.719 230.237 151.187C229.613 151.646 229.2 152.224 228.999 152.921L223.578 152.48C223.853 151.196 224.394 150.086 225.201 149.151C226.009 148.206 227.05 147.482 228.325 146.977C229.609 146.463 231.094 146.207 232.782 146.207C233.956 146.207 235.08 146.344 236.153 146.619C237.235 146.895 238.194 147.321 239.028 147.899C239.872 148.477 240.537 149.22 241.023 150.128C241.509 151.027 241.752 152.104 241.752 153.361V167.614H236.194V164.684H236.029C235.69 165.344 235.236 165.927 234.667 166.431C234.098 166.926 233.415 167.316 232.617 167.6C231.819 167.876 230.897 168.013 229.852 168.013ZM231.53 163.968C232.392 163.968 233.154 163.799 233.814 163.459C234.474 163.111 234.993 162.643 235.369 162.056C235.745 161.469 235.933 160.804 235.933 160.061V157.818C235.749 157.938 235.497 158.048 235.176 158.149C234.864 158.24 234.511 158.328 234.117 158.41C233.722 158.483 233.328 158.552 232.933 158.616C232.539 158.671 232.181 158.722 231.86 158.768C231.172 158.869 230.572 159.029 230.058 159.249C229.544 159.469 229.145 159.768 228.861 160.144C228.577 160.51 228.435 160.969 228.435 161.519C228.435 162.317 228.723 162.927 229.301 163.349C229.888 163.762 230.631 163.968 231.53 163.968ZM246.299 167.614V146.482H251.982V150.169H252.202C252.587 148.857 253.234 147.867 254.142 147.197C255.05 146.518 256.095 146.179 257.278 146.179C257.572 146.179 257.888 146.197 258.228 146.234C258.567 146.271 258.865 146.321 259.122 146.385V151.586C258.847 151.503 258.466 151.43 257.98 151.366C257.494 151.302 257.049 151.27 256.646 151.27C255.783 151.27 255.013 151.458 254.334 151.834C253.665 152.201 253.133 152.714 252.738 153.375C252.353 154.035 252.16 154.796 252.16 155.658V167.614H246.299ZM270.799 168.027C268.625 168.027 266.754 167.587 265.186 166.706C263.627 165.817 262.425 164.56 261.581 162.936C260.737 161.304 260.316 159.373 260.316 157.144C260.316 154.971 260.737 153.063 261.581 151.421C262.425 149.779 263.613 148.5 265.145 147.582C266.686 146.665 268.492 146.207 270.565 146.207C271.96 146.207 273.257 146.431 274.459 146.881C275.67 147.321 276.724 147.986 277.623 148.876C278.531 149.765 279.238 150.884 279.742 152.233C280.246 153.572 280.499 155.14 280.499 156.938V158.548H262.654V154.916H274.982C274.982 154.072 274.798 153.324 274.431 152.673C274.065 152.022 273.555 151.513 272.904 151.146C272.262 150.77 271.515 150.582 270.662 150.582C269.772 150.582 268.983 150.788 268.295 151.201C267.617 151.604 267.085 152.15 266.699 152.838C266.314 153.517 266.117 154.273 266.108 155.108V158.561C266.108 159.607 266.3 160.51 266.686 161.272C267.08 162.033 267.635 162.62 268.35 163.033C269.066 163.446 269.914 163.652 270.896 163.652C271.547 163.652 272.143 163.56 272.684 163.377C273.225 163.193 273.688 162.918 274.074 162.551C274.459 162.184 274.752 161.735 274.954 161.203L280.375 161.561C280.1 162.863 279.536 164 278.683 164.973C277.839 165.936 276.747 166.688 275.408 167.229C274.078 167.761 272.542 168.027 270.799 168.027Z" fill="#FF3357"/>
<rect x="1283" y="576" width="240" height="82.2857" rx="20.5714" fill="#E2FDE3"/>
<mask id="mask0_98_136" style="mask-type:luminance" maskUnits="userSpaceOnUse" x="1314" y="599" width="36" height="36">
<path fill-rule="evenodd" clip-rule="evenodd" d="M1316.56 609.428H1347.42L1345.7 632.571H1318.28L1316.56 609.428Z" fill="white" stroke="white" stroke-width="3.42857" stroke-linejoin="round"/>
<path d="M1325.13 612.857V601.714H1338.85V612.857" stroke="white" stroke-width="3.42857" stroke-linecap="round" stroke-linejoin="round"/>
<path d="M1325.13 625.714H1338.85" stroke="black" stroke-width="3.42857" stroke-linecap="round"/>
</mask>
<g mask="url(#mask0_98_136)">
<path d="M1311.42 596.571H1352.56V637.714H1311.42V596.571Z" fill="#14B91B"/>
</g>
<path d="M1372.62 626.886C1371.48 626.886 1370.45 626.594 1369.53 626.01C1368.61 625.419 1367.89 624.552 1367.35 623.409C1366.82 622.26 1366.55 620.851 1366.55 619.182C1366.55 617.467 1366.83 616.042 1367.38 614.906C1367.93 613.763 1368.66 612.909 1369.58 612.344C1370.5 611.773 1371.51 611.487 1372.61 611.487C1373.45 611.487 1374.14 611.63 1374.7 611.916C1375.27 612.195 1375.72 612.545 1376.07 612.967C1376.42 613.383 1376.68 613.792 1376.86 614.195H1376.99V606.695H1381.13V626.643H1377.04V624.247H1376.86C1376.67 624.662 1376.39 625.075 1376.04 625.484C1375.69 625.886 1375.23 626.221 1374.66 626.487C1374.1 626.753 1373.42 626.886 1372.62 626.886ZM1373.93 623.584C1374.6 623.584 1375.17 623.403 1375.63 623.039C1376.09 622.669 1376.45 622.153 1376.7 621.49C1376.95 620.828 1377.08 620.052 1377.08 619.162C1377.08 618.273 1376.96 617.5 1376.71 616.844C1376.46 616.188 1376.1 615.682 1375.64 615.325C1375.17 614.967 1374.6 614.789 1373.93 614.789C1373.25 614.789 1372.68 614.974 1372.21 615.344C1371.74 615.714 1371.39 616.227 1371.15 616.883C1370.91 617.539 1370.79 618.299 1370.79 619.162C1370.79 620.032 1370.91 620.802 1371.15 621.471C1371.39 622.133 1371.75 622.653 1372.21 623.029C1372.68 623.399 1373.25 623.584 1373.93 623.584ZM1384.54 626.643V611.682H1388.69V626.643H1384.54ZM1386.63 609.753C1386.01 609.753 1385.48 609.549 1385.04 609.14C1384.6 608.724 1384.39 608.227 1384.39 607.649C1384.39 607.078 1384.6 606.588 1385.04 606.179C1385.48 605.763 1386.01 605.555 1386.63 605.555C1387.24 605.555 1387.77 605.763 1388.2 606.179C1388.65 606.588 1388.87 607.078 1388.87 607.649C1388.87 608.227 1388.65 608.724 1388.2 609.14C1387.77 609.549 1387.24 609.753 1386.63 609.753ZM1398.83 626.935C1397.29 626.935 1395.97 626.623 1394.86 626C1393.76 625.37 1392.9 624.48 1392.31 623.331C1391.71 622.175 1391.41 620.808 1391.41 619.23C1391.41 617.692 1391.71 616.341 1392.31 615.179C1392.9 614.016 1393.75 613.11 1394.83 612.461C1395.92 611.812 1397.2 611.487 1398.67 611.487C1399.65 611.487 1400.57 611.646 1401.42 611.964C1402.28 612.276 1403.03 612.747 1403.66 613.377C1404.31 614.006 1404.81 614.799 1405.16 615.753C1405.52 616.701 1405.7 617.812 1405.7 619.084V620.224H1393.07V617.653H1401.79C1401.79 617.055 1401.66 616.526 1401.4 616.065C1401.15 615.604 1400.78 615.243 1400.32 614.984C1399.87 614.717 1399.34 614.584 1398.74 614.584C1398.11 614.584 1397.55 614.73 1397.06 615.023C1396.58 615.308 1396.2 615.695 1395.93 616.182C1395.66 616.662 1395.52 617.198 1395.51 617.789V620.234C1395.51 620.974 1395.65 621.614 1395.92 622.153C1396.2 622.692 1396.59 623.107 1397.1 623.399C1397.61 623.692 1398.21 623.838 1398.9 623.838C1399.36 623.838 1399.78 623.773 1400.17 623.643C1400.55 623.513 1400.88 623.318 1401.15 623.058C1401.42 622.799 1401.63 622.48 1401.78 622.104L1405.61 622.357C1405.42 623.279 1405.02 624.084 1404.41 624.773C1403.82 625.455 1403.04 625.987 1402.1 626.37C1401.15 626.747 1400.07 626.935 1398.83 626.935ZM1416.37 611.682V614.799H1407.36V611.682H1416.37ZM1409.4 608.097H1413.55V622.045C1413.55 622.429 1413.61 622.727 1413.73 622.942C1413.84 623.149 1414.01 623.295 1414.21 623.38C1414.43 623.464 1414.67 623.506 1414.95 623.506C1415.15 623.506 1415.34 623.49 1415.54 623.458C1415.73 623.419 1415.88 623.39 1415.99 623.37L1416.64 626.458C1416.43 626.523 1416.14 626.597 1415.76 626.682C1415.39 626.773 1414.93 626.828 1414.39 626.847C1413.39 626.886 1412.51 626.753 1411.76 626.448C1411.01 626.143 1410.43 625.669 1410.02 625.026C1409.6 624.383 1409.4 623.571 1409.4 622.591V608.097Z" fill="#14B91B"/>
<rect x="265" y="621" width="213" height="73.0286" rx="18.2571" fill="#CEEAFF"/>
<path d="M305.436 643.822L302.393 646.864V649.907H297.829C296.079 649.907 294.969 651.429 294.786 652.95L293.265 668.164C293.082 669.686 294.086 671.207 296.308 671.207H320.65C322.872 671.207 323.876 669.686 323.693 668.164L322.172 652.95C321.989 651.429 320.742 649.907 319.129 649.907H314.565V646.864L311.522 643.822H305.436ZM305.436 646.864H311.522V649.907H305.436V646.864ZM306.958 654.472H310V659.036H314.565V662.079H310V666.643H306.958V662.079H302.393V659.036H306.958V654.472Z" fill="#1C9AE1"/>
<path d="M339.643 666.014V652.736H343.153V655.079H343.308C343.585 654.301 344.046 653.687 344.691 653.238C345.337 652.788 346.109 652.564 347.008 652.564C347.919 652.564 348.694 652.791 349.333 653.247C349.973 653.696 350.4 654.307 350.613 655.079H350.751C351.022 654.318 351.512 653.71 352.221 653.255C352.935 652.794 353.78 652.564 354.753 652.564C355.992 652.564 356.998 652.958 357.77 653.748C358.548 654.532 358.937 655.644 358.937 657.085V666.014H355.263V657.811C355.263 657.073 355.068 656.52 354.676 656.151C354.284 655.782 353.794 655.598 353.206 655.598C352.538 655.598 352.016 655.811 351.641 656.237C351.267 656.658 351.08 657.214 351.08 657.906V666.014H347.509V657.733C347.509 657.082 347.322 656.563 346.947 656.177C346.579 655.791 346.092 655.598 345.487 655.598C345.077 655.598 344.709 655.702 344.38 655.909C344.057 656.111 343.801 656.396 343.611 656.765C343.421 657.128 343.325 657.554 343.325 658.044V666.014H339.643ZM367.897 666.274C366.532 666.274 365.356 665.997 364.37 665.444C363.391 664.885 362.636 664.095 362.106 663.075C361.575 662.049 361.31 660.836 361.31 659.436C361.31 658.07 361.575 656.871 362.106 655.84C362.636 654.808 363.382 654.004 364.345 653.428C365.313 652.852 366.448 652.564 367.75 652.564C368.626 652.564 369.442 652.705 370.197 652.987C370.958 653.264 371.62 653.682 372.185 654.241C372.756 654.8 373.199 655.503 373.516 656.35C373.833 657.191 373.992 658.177 373.992 659.306V660.318H362.78V658.036H370.525C370.525 657.505 370.41 657.036 370.18 656.626C369.949 656.217 369.629 655.897 369.22 655.667C368.817 655.431 368.347 655.313 367.811 655.313C367.252 655.313 366.756 655.442 366.324 655.702C365.898 655.955 365.563 656.298 365.321 656.73C365.079 657.157 364.955 657.632 364.95 658.157V660.326C364.95 660.983 365.071 661.551 365.313 662.029C365.56 662.508 365.909 662.876 366.359 663.136C366.808 663.395 367.341 663.525 367.958 663.525C368.367 663.525 368.742 663.467 369.082 663.352C369.422 663.237 369.713 663.064 369.955 662.833C370.197 662.603 370.381 662.32 370.508 661.986L373.914 662.211C373.741 663.029 373.387 663.744 372.851 664.355C372.32 664.96 371.635 665.432 370.793 665.772C369.958 666.107 368.992 666.274 367.897 666.274ZM381.288 666.231C380.279 666.231 379.366 665.971 378.547 665.453C377.735 664.928 377.089 664.159 376.611 663.144C376.138 662.124 375.902 660.874 375.902 659.393C375.902 657.871 376.147 656.606 376.637 655.598C377.127 654.584 377.778 653.826 378.591 653.324C379.409 652.817 380.305 652.564 381.279 652.564C382.022 652.564 382.642 652.69 383.138 652.944C383.639 653.192 384.042 653.503 384.348 653.878C384.659 654.246 384.895 654.609 385.057 654.967H385.169V648.311H388.843V666.014H385.212V663.888H385.057C384.884 664.257 384.639 664.623 384.322 664.986C384.011 665.343 383.604 665.64 383.103 665.876C382.607 666.112 382.002 666.231 381.288 666.231ZM382.455 663.3C383.048 663.3 383.55 663.139 383.959 662.816C384.374 662.487 384.691 662.029 384.91 661.441C385.134 660.854 385.247 660.165 385.247 659.375C385.247 658.586 385.137 657.9 384.918 657.318C384.699 656.736 384.382 656.286 383.967 655.97C383.553 655.653 383.048 655.494 382.455 655.494C381.85 655.494 381.34 655.658 380.925 655.987C380.51 656.315 380.196 656.771 379.982 657.353C379.769 657.935 379.663 658.609 379.663 659.375C379.663 660.148 379.769 660.831 379.982 661.424C380.201 662.012 380.515 662.473 380.925 662.807C381.34 663.136 381.85 663.3 382.455 663.3ZM391.871 666.014V652.736H395.553V666.014H391.871ZM393.721 651.025C393.173 651.025 392.703 650.843 392.312 650.48C391.925 650.111 391.732 649.671 391.732 649.158C391.732 648.651 391.925 648.215 392.312 647.852C392.703 647.484 393.173 647.299 393.721 647.299C394.268 647.299 394.735 647.484 395.121 647.852C395.513 648.215 395.709 648.651 395.709 649.158C395.709 649.671 395.513 650.111 395.121 650.48C394.735 650.843 394.268 651.025 393.721 651.025ZM404.502 666.274C403.142 666.274 401.972 665.986 400.993 665.409C400.019 664.827 399.27 664.02 398.745 662.989C398.227 661.957 397.967 660.77 397.967 659.427C397.967 658.067 398.229 656.874 398.754 655.848C399.284 654.817 400.036 654.013 401.01 653.437C401.984 652.855 403.142 652.564 404.485 652.564C405.644 652.564 406.658 652.774 407.528 653.195C408.398 653.615 409.087 654.206 409.594 654.967C410.101 655.727 410.381 656.621 410.433 657.647H406.957C406.86 656.984 406.6 656.451 406.179 656.047C405.765 655.638 405.22 655.434 404.546 655.434C403.975 655.434 403.477 655.589 403.05 655.9C402.629 656.206 402.301 656.652 402.065 657.24C401.828 657.828 401.71 658.54 401.71 659.375C401.71 660.223 401.826 660.943 402.056 661.537C402.292 662.13 402.624 662.583 403.05 662.894C403.477 663.205 403.975 663.361 404.546 663.361C404.966 663.361 405.344 663.274 405.678 663.101C406.018 662.928 406.298 662.678 406.517 662.349C406.741 662.015 406.888 661.614 406.957 661.148H410.433C410.375 662.162 410.098 663.055 409.603 663.827C409.113 664.594 408.436 665.193 407.571 665.625C406.707 666.058 405.684 666.274 404.502 666.274ZM416.577 666.265C415.729 666.265 414.975 666.118 414.312 665.824C413.649 665.525 413.125 665.084 412.738 664.502C412.358 663.914 412.168 663.182 412.168 662.306C412.168 661.568 412.303 660.949 412.574 660.447C412.845 659.946 413.214 659.543 413.681 659.237C414.148 658.932 414.678 658.701 415.271 658.546C415.871 658.39 416.499 658.28 417.156 658.217C417.928 658.136 418.55 658.061 419.023 657.992C419.496 657.917 419.838 657.808 420.052 657.664C420.265 657.52 420.372 657.307 420.372 657.024V656.972C420.372 656.425 420.199 656.001 419.853 655.702C419.513 655.402 419.029 655.252 418.401 655.252C417.738 655.252 417.211 655.399 416.819 655.693C416.427 655.981 416.167 656.344 416.041 656.782L412.635 656.505C412.808 655.699 413.148 655.001 413.655 654.414C414.162 653.82 414.816 653.365 415.617 653.048C416.424 652.725 417.357 652.564 418.418 652.564C419.156 652.564 419.862 652.65 420.536 652.823C421.216 652.996 421.818 653.264 422.342 653.627C422.873 653.99 423.29 654.457 423.596 655.027C423.901 655.592 424.054 656.269 424.054 657.059V666.014H420.562V664.173H420.458C420.245 664.588 419.959 664.954 419.602 665.271C419.245 665.582 418.816 665.827 418.314 666.006C417.813 666.179 417.234 666.265 416.577 666.265ZM417.631 663.724C418.173 663.724 418.651 663.617 419.066 663.404C419.481 663.185 419.807 662.891 420.043 662.522C420.279 662.153 420.397 661.735 420.397 661.269V659.86C420.282 659.934 420.124 660.004 419.922 660.067C419.726 660.125 419.504 660.179 419.256 660.231C419.009 660.277 418.761 660.321 418.513 660.361C418.265 660.395 418.04 660.427 417.839 660.456C417.406 660.519 417.029 660.62 416.706 660.759C416.384 660.897 416.133 661.084 415.954 661.32C415.776 661.551 415.686 661.839 415.686 662.185C415.686 662.686 415.868 663.07 416.231 663.335C416.6 663.594 417.066 663.724 417.631 663.724ZM430.594 648.311V666.014H426.911V648.311H430.594Z" fill="#1C9AE1"/>
<rect x="1489" y="232" width="360" height="111.714" rx="30.8571" fill="#E0E5FF"/>
<path d="M1554.46 266.12C1554.65 266.043 1554.85 266.005 1555.06 266.007C1555.26 266.009 1555.46 266.052 1555.65 266.132L1570.95 272.687C1571.21 272.798 1571.43 272.977 1571.6 273.206C1571.76 273.434 1571.86 273.703 1571.89 273.983C1571.91 274.264 1571.86 274.546 1571.74 274.8C1571.62 275.054 1571.43 275.27 1571.19 275.425L1571.19 275.431L1571.15 275.453L1571.01 275.553C1570.21 276.129 1569.45 276.765 1568.74 277.457C1567.51 278.662 1566.41 280.104 1566.02 281.527C1566.77 283.697 1567.84 286.181 1568.75 288.188C1569.25 289.277 1569.76 290.359 1570.28 291.435L1575.27 294.431C1576.24 295.013 1577.04 295.837 1577.6 296.821C1578.16 297.806 1578.45 298.918 1578.45 300.05V305.025C1578.45 305.431 1578.29 305.821 1578.01 306.113C1577.73 306.404 1577.34 306.574 1576.94 306.586H1576.83C1576.39 306.598 1575.96 306.598 1575.52 306.586C1570.26 306.463 1565.02 305.712 1559.94 304.348C1550.85 301.876 1540.18 296.616 1534.9 285.401C1534.8 285.187 1534.75 284.953 1534.75 284.717C1534.75 284.481 1534.81 284.248 1534.91 284.037C1536.54 280.794 1539.82 276.973 1543.4 273.689C1546.98 270.409 1551.08 267.468 1554.46 266.12ZM1575.33 303.458V301.782C1555.58 300.031 1544.61 291.847 1539.23 282.932C1538.79 283.565 1538.39 284.18 1538.06 284.767C1542.88 294.31 1552.25 299.023 1560.75 301.336C1565.51 302.61 1570.4 303.323 1575.33 303.458ZM1573.66 297.106L1569.33 294.506L1566.55 297.284C1569.34 297.908 1572.17 298.354 1575.02 298.62C1574.73 297.991 1574.25 297.463 1573.66 297.106ZM1563.29 279.848C1564.03 277.962 1565.4 276.361 1566.55 275.228C1566.81 274.978 1567.06 274.741 1567.31 274.523L1555.04 269.266C1552.47 270.421 1549.28 272.647 1546.26 275.315L1549.9 278.949C1550.05 279.094 1550.16 279.266 1550.24 279.456C1550.32 279.646 1550.36 279.849 1550.36 280.054V290.345C1552.05 291.563 1553.96 292.702 1556.1 293.729L1559.37 289.365L1553.74 280.918C1553.57 280.665 1553.48 280.368 1553.48 280.064C1553.48 279.76 1553.56 279.462 1553.73 279.207C1553.89 278.952 1554.13 278.75 1554.41 278.627C1554.69 278.504 1554.99 278.465 1555.29 278.515L1563.29 279.848Z" fill="#466FFF"/>
<path d="M1613.61 303.295C1611.3 303.295 1609.32 302.828 1607.65 301.893C1606 300.948 1604.72 299.613 1603.82 297.889C1602.93 296.156 1602.48 294.105 1602.48 291.738C1602.48 289.43 1602.93 287.404 1603.82 285.661C1604.72 283.917 1605.98 282.558 1607.61 281.584C1609.24 280.61 1611.16 280.123 1613.36 280.123C1614.85 280.123 1616.22 280.362 1617.5 280.839C1618.78 281.307 1619.91 282.013 1620.86 282.958C1621.82 283.902 1622.57 285.091 1623.11 286.523C1623.65 287.945 1623.91 289.61 1623.91 291.519V293.229H1604.96V289.372H1618.05C1618.05 288.475 1617.86 287.682 1617.47 286.99C1617.08 286.298 1616.54 285.758 1615.85 285.368C1615.17 284.969 1614.37 284.769 1613.47 284.769C1612.52 284.769 1611.68 284.988 1610.95 285.427C1610.23 285.855 1609.67 286.435 1609.26 287.165C1608.85 287.886 1608.64 288.69 1608.63 289.576V293.243C1608.63 294.354 1608.84 295.313 1609.24 296.122C1609.66 296.93 1610.25 297.553 1611.01 297.992C1611.77 298.43 1612.67 298.649 1613.72 298.649C1614.41 298.649 1615.04 298.552 1615.61 298.357C1616.19 298.162 1616.68 297.87 1617.09 297.48C1617.5 297.091 1617.81 296.613 1618.03 296.048L1623.78 296.428C1623.49 297.811 1622.89 299.019 1621.98 300.052C1621.09 301.074 1619.93 301.873 1618.51 302.448C1617.1 303.013 1615.46 303.295 1613.61 303.295ZM1632.77 280.415L1636.89 288.261L1641.12 280.415H1647.5L1641 291.636L1647.68 302.857H1641.32L1636.89 295.099L1632.54 302.857H1626.11L1632.77 291.636L1626.35 280.415H1632.77ZM1660.62 303.295C1658.31 303.295 1656.33 302.828 1654.66 301.893C1653 300.948 1651.73 299.613 1650.83 297.889C1649.94 296.156 1649.49 294.105 1649.49 291.738C1649.49 289.43 1649.94 287.404 1650.83 285.661C1651.73 283.917 1652.99 282.558 1654.62 281.584C1656.25 280.61 1658.17 280.123 1660.37 280.123C1661.85 280.123 1663.23 280.362 1664.51 280.839C1665.79 281.307 1666.91 282.013 1667.87 282.958C1668.83 283.902 1669.58 285.091 1670.12 286.523C1670.65 287.945 1670.92 289.61 1670.92 291.519V293.229H1651.97V289.372H1665.06C1665.06 288.475 1664.87 287.682 1664.48 286.99C1664.09 286.298 1663.55 285.758 1662.86 285.368C1662.18 284.969 1661.38 284.769 1660.48 284.769C1659.53 284.769 1658.69 284.988 1657.96 285.427C1657.24 285.855 1656.68 286.435 1656.27 287.165C1655.86 287.886 1655.65 288.69 1655.64 289.576V293.243C1655.64 294.354 1655.84 295.313 1656.25 296.122C1656.67 296.93 1657.26 297.553 1658.02 297.992C1658.78 298.43 1659.68 298.649 1660.72 298.649C1661.42 298.649 1662.05 298.552 1662.62 298.357C1663.2 298.162 1663.69 297.87 1664.1 297.48C1664.51 297.091 1664.82 296.613 1665.03 296.048L1670.79 296.428C1670.5 297.811 1669.9 299.019 1668.99 300.052C1668.1 301.074 1666.94 301.873 1665.52 302.448C1664.1 303.013 1662.47 303.295 1660.62 303.295ZM1674.98 302.857V280.415H1681.02V284.331H1681.25C1681.66 282.938 1682.35 281.886 1683.31 281.175C1684.28 280.454 1685.39 280.094 1686.64 280.094C1686.95 280.094 1687.29 280.113 1687.65 280.152C1688.01 280.191 1688.33 280.245 1688.6 280.313V285.836C1688.31 285.748 1687.9 285.67 1687.39 285.602C1686.87 285.534 1686.4 285.5 1685.97 285.5C1685.06 285.5 1684.24 285.699 1683.52 286.099C1682.81 286.488 1682.24 287.034 1681.82 287.735C1681.41 288.436 1681.21 289.245 1681.21 290.161V302.857H1674.98ZM1700.91 303.295C1698.61 303.295 1696.64 302.808 1694.98 301.834C1693.34 300.85 1692.07 299.487 1691.18 297.743C1690.31 296 1689.87 293.993 1689.87 291.724C1689.87 289.425 1690.31 287.409 1691.2 285.675C1692.09 283.932 1693.36 282.573 1695.01 281.599C1696.66 280.615 1698.61 280.123 1700.88 280.123C1702.84 280.123 1704.56 280.479 1706.03 281.19C1707.5 281.901 1708.66 282.899 1709.52 284.185C1710.38 285.471 1710.85 286.98 1710.94 288.714H1705.06C1704.9 287.594 1704.46 286.693 1703.75 286.011C1703.05 285.32 1702.13 284.974 1700.99 284.974C1700.02 284.974 1699.18 285.237 1698.46 285.763C1697.75 286.279 1697.19 287.034 1696.79 288.027C1696.39 289.021 1696.19 290.224 1696.19 291.636C1696.19 293.068 1696.39 294.286 1696.78 295.289C1697.18 296.292 1697.74 297.057 1698.46 297.583C1699.18 298.109 1700.02 298.372 1700.99 298.372C1701.7 298.372 1702.34 298.225 1702.9 297.933C1703.48 297.641 1703.95 297.217 1704.32 296.662C1704.7 296.097 1704.95 295.42 1705.06 294.631H1710.94C1710.84 296.346 1710.37 297.855 1709.53 299.161C1708.71 300.456 1707.56 301.469 1706.1 302.199C1704.64 302.93 1702.91 303.295 1700.91 303.295ZM1714.92 302.857V280.415H1721.15V302.857H1714.92ZM1718.05 277.523C1717.12 277.523 1716.33 277.216 1715.67 276.602C1715.01 275.979 1714.69 275.234 1714.69 274.367C1714.69 273.51 1715.01 272.774 1715.67 272.16C1716.33 271.537 1717.12 271.225 1718.05 271.225C1718.97 271.225 1719.76 271.537 1720.41 272.16C1721.08 272.774 1721.41 273.51 1721.41 274.367C1721.41 275.234 1721.08 275.979 1720.41 276.602C1719.76 277.216 1718.97 277.523 1718.05 277.523ZM1744.8 286.815L1739.11 287.165C1739.01 286.678 1738.8 286.24 1738.48 285.85C1738.16 285.451 1737.73 285.135 1737.21 284.901C1736.69 284.657 1736.07 284.536 1735.35 284.536C1734.39 284.536 1733.57 284.74 1732.91 285.149C1732.25 285.548 1731.92 286.084 1731.92 286.756C1731.92 287.292 1732.13 287.745 1732.56 288.115C1732.99 288.485 1733.72 288.782 1734.77 289.006L1738.83 289.824C1741.01 290.273 1742.64 290.993 1743.71 291.987C1744.78 292.98 1745.31 294.286 1745.31 295.902C1745.31 297.373 1744.88 298.664 1744.01 299.774C1743.16 300.885 1741.98 301.751 1740.48 302.375C1738.99 302.988 1737.27 303.295 1735.32 303.295C1732.35 303.295 1729.98 302.677 1728.22 301.44C1726.47 300.193 1725.44 298.498 1725.14 296.355L1731.26 296.034C1731.44 296.94 1731.89 297.631 1732.6 298.109C1733.31 298.576 1734.23 298.81 1735.34 298.81C1736.43 298.81 1737.3 298.6 1737.97 298.182C1738.64 297.753 1738.98 297.203 1738.99 296.531C1738.98 295.966 1738.74 295.503 1738.27 295.143C1737.8 294.773 1737.08 294.49 1736.11 294.295L1732.22 293.521C1730.03 293.083 1728.4 292.323 1727.33 291.242C1726.27 290.161 1725.74 288.782 1725.74 287.107C1725.74 285.665 1726.13 284.423 1726.91 283.381C1727.69 282.339 1728.8 281.536 1730.22 280.971C1731.65 280.406 1733.33 280.123 1735.25 280.123C1738.08 280.123 1740.31 280.722 1741.94 281.92C1743.58 283.118 1744.53 284.75 1744.8 286.815ZM1759.46 303.295C1757.15 303.295 1755.17 302.828 1753.5 301.893C1751.84 300.948 1750.57 299.613 1749.67 297.889C1748.78 296.156 1748.33 294.105 1748.33 291.738C1748.33 289.43 1748.78 287.404 1749.67 285.661C1750.57 283.917 1751.83 282.558 1753.46 281.584C1755.09 280.61 1757.01 280.123 1759.21 280.123C1760.69 280.123 1762.07 280.362 1763.35 280.839C1764.63 281.307 1765.75 282.013 1766.71 282.958C1767.67 283.902 1768.42 285.091 1768.96 286.523C1769.49 287.945 1769.76 289.61 1769.76 291.519V293.229H1750.81V289.372H1763.9C1763.9 288.475 1763.71 287.682 1763.32 286.99C1762.93 286.298 1762.39 285.758 1761.7 285.368C1761.01 284.969 1760.22 284.769 1759.32 284.769C1758.37 284.769 1757.53 284.988 1756.8 285.427C1756.08 285.855 1755.52 286.435 1755.11 287.165C1754.7 287.886 1754.49 288.69 1754.48 289.576V293.243C1754.48 294.354 1754.68 295.313 1755.09 296.122C1755.51 296.93 1756.1 297.553 1756.86 297.992C1757.62 298.43 1758.52 298.649 1759.56 298.649C1760.25 298.649 1760.89 298.552 1761.46 298.357C1762.04 298.162 1762.53 297.87 1762.94 297.48C1763.35 297.091 1763.66 296.613 1763.87 296.048L1769.63 296.428C1769.34 297.811 1768.74 299.019 1767.83 300.052C1766.94 301.074 1765.78 301.873 1764.36 302.448C1762.94 303.013 1761.31 303.295 1759.46 303.295Z" fill="#466FFF"/>
<path d="M1346.26 139.535L1346.26 139.535L1369.22 81.8436C1369.62 80.8484 1370.3 79.9923 1371.18 79.3827C1372.06 78.7731 1373.1 78.4371 1374.17 78.4169C1375.24 78.3968 1376.3 78.6932 1377.2 79.2692C1378.1 79.8451 1378.82 80.6747 1379.25 81.654L1346.26 139.535ZM1346.26 139.535C1345.86 140.533 1345.77 141.626 1346 142.676C1346.22 143.726 1346.75 144.687 1347.52 145.437C1348.28 146.187 1349.26 146.692 1350.31 146.89C1351.37 147.088 1352.46 146.969 1353.45 146.548C1353.45 146.548 1353.45 146.548 1353.45 146.547L1410.58 122.231L1346.26 139.535ZM1388.57 102.704L1379.25 81.6546L1410.58 122.231C1411.56 121.812 1412.4 121.111 1412.99 120.216C1413.58 119.321 1413.89 118.273 1413.88 117.202C1413.88 116.131 1413.56 115.085 1412.96 114.196C1412.36 113.307 1411.52 112.614 1410.53 112.204L1389.26 103.387C1388.95 103.257 1388.7 103.013 1388.57 102.704C1388.57 102.704 1388.57 102.704 1388.57 102.704Z" fill="#FC123D" stroke="black" stroke-width="4.12138"/>
<rect x="1416.5" y="15.5" width="131.833" height="63.8333" rx="18.5" fill="#FC123D"/>
<rect x="1416.5" y="15.5" width="131.833" height="63.8333" rx="18.5" stroke="black" stroke-width="5"/>
<path d="M1438.46 57.4165L1432.88 38.2432H1438.01L1440.9 50.807H1441.06L1444.36 38.2432H1448.54L1451.84 50.835H1452L1454.9 38.2432H1460.02L1454.44 57.4165H1449.98L1446.52 45.7889H1446.37L1442.92 57.4165H1438.46ZM1467.05 57.688C1465.54 57.688 1464.24 57.3791 1463.15 56.7612C1462.07 56.137 1461.24 55.2695 1460.65 54.1585C1460.07 53.0413 1459.78 51.7463 1459.78 50.2733C1459.78 48.7941 1460.07 47.4991 1460.65 46.3881C1461.24 45.2709 1462.07 44.4034 1463.15 43.7855C1464.24 43.1613 1465.54 42.8493 1467.05 42.8493C1468.56 42.8493 1469.85 43.1613 1470.93 43.7855C1472.02 44.4034 1472.85 45.2709 1473.43 46.3881C1474.02 47.4991 1474.31 48.7941 1474.31 50.2733C1474.31 51.7463 1474.02 53.0413 1473.43 54.1585C1472.85 55.2695 1472.02 56.137 1470.93 56.7612C1469.85 57.3791 1468.56 57.688 1467.05 57.688ZM1467.07 54.2334C1467.62 54.2334 1468.09 54.0649 1468.47 53.7279C1468.85 53.3909 1469.14 52.9228 1469.34 52.3236C1469.55 51.7244 1469.65 51.0316 1469.65 50.2452C1469.65 49.4463 1469.55 48.7473 1469.34 48.1482C1469.14 47.549 1468.85 47.0809 1468.47 46.7439C1468.09 46.4068 1467.62 46.2383 1467.07 46.2383C1466.51 46.2383 1466.03 46.4068 1465.63 46.7439C1465.25 47.0809 1464.95 47.549 1464.74 48.1482C1464.54 48.7473 1464.44 49.4463 1464.44 50.2452C1464.44 51.0316 1464.54 51.7244 1464.74 52.3236C1464.95 52.9228 1465.25 53.3909 1465.63 53.7279C1466.03 54.0649 1466.51 54.2334 1467.07 54.2334ZM1476.66 57.4165V43.0365H1481.01V45.6766H1481.17C1481.47 44.8028 1481.97 44.1131 1482.69 43.6076C1483.4 43.1021 1484.25 42.8493 1485.23 42.8493C1486.23 42.8493 1487.09 43.1052 1487.8 43.617C1488.51 44.1287 1488.96 44.8153 1489.15 45.6766H1489.3C1489.57 44.8215 1490.1 44.1381 1490.88 43.6263C1491.66 43.1083 1492.58 42.8493 1493.64 42.8493C1495 42.8493 1496.1 43.2862 1496.95 44.16C1497.8 45.0275 1498.23 46.2196 1498.23 47.7362V57.4165H1493.65V48.7848C1493.65 48.067 1493.46 47.5209 1493.1 47.1464C1492.73 46.7657 1492.25 46.5753 1491.66 46.5753C1491.03 46.5753 1490.54 46.7813 1490.17 47.1932C1489.82 47.5989 1489.64 48.145 1489.64 48.8316V57.4165H1485.24V48.738C1485.24 48.0701 1485.06 47.5427 1484.7 47.1558C1484.34 46.7688 1483.86 46.5753 1483.27 46.5753C1482.87 46.5753 1482.51 46.6721 1482.21 46.8656C1481.9 47.0528 1481.66 47.3212 1481.49 47.6707C1481.32 48.0202 1481.23 48.4321 1481.23 48.9065V57.4165H1476.66ZM1507.78 57.688C1506.28 57.688 1504.98 57.3915 1503.89 56.7986C1502.8 56.1994 1501.97 55.3475 1501.38 54.2428C1500.8 53.1318 1500.51 51.8118 1500.51 50.2827C1500.51 48.7973 1500.8 47.4991 1501.39 46.3881C1501.98 45.2709 1502.8 44.4034 1503.87 43.7855C1504.94 43.1613 1506.2 42.8493 1507.64 42.8493C1508.67 42.8493 1509.6 43.0084 1510.45 43.3267C1511.3 43.645 1512.03 44.1163 1512.65 44.7404C1513.27 45.3645 1513.75 46.1353 1514.09 47.0528C1514.44 47.964 1514.61 49.0095 1514.61 50.1891V51.3312H1502.11V48.6724H1510.35C1510.34 48.1856 1510.23 47.7518 1510 47.3711C1509.78 46.9904 1509.47 46.6939 1509.08 46.4817C1508.69 46.2633 1508.24 46.1541 1507.74 46.1541C1507.23 46.1541 1506.77 46.2695 1506.36 46.5004C1505.96 46.7251 1505.63 47.0341 1505.4 47.4273C1505.16 47.8142 1505.04 48.2543 1505.02 48.7473V51.4529C1505.02 52.0396 1505.14 52.5545 1505.37 52.9977C1505.6 53.4345 1505.93 53.7747 1506.35 54.0181C1506.78 54.2615 1507.28 54.3832 1507.87 54.3832C1508.27 54.3832 1508.64 54.3271 1508.97 54.2147C1509.3 54.1024 1509.59 53.937 1509.83 53.7185C1510.06 53.5001 1510.24 53.2317 1510.36 52.9134L1514.56 53.0351C1514.39 53.9775 1514 54.7983 1513.41 55.4973C1512.82 56.1901 1512.05 56.73 1511.1 57.1169C1510.14 57.4976 1509.04 57.688 1507.78 57.688ZM1521.53 49.2154V57.4165H1516.95V43.0365H1521.3V45.6766H1521.46C1521.78 44.7966 1522.32 44.1069 1523.09 43.6076C1523.86 43.1021 1524.77 42.8493 1525.83 42.8493C1526.84 42.8493 1527.72 43.0771 1528.46 43.5327C1529.21 43.9821 1529.79 44.6125 1530.2 45.4238C1530.62 46.229 1530.83 47.1714 1530.82 48.2511V57.4165H1526.24V49.1499C1526.25 48.351 1526.05 47.7269 1525.64 47.2775C1525.23 46.8281 1524.66 46.6034 1523.94 46.6034C1523.46 46.6034 1523.04 46.7095 1522.67 46.9217C1522.31 47.1277 1522.02 47.4242 1521.83 47.8111C1521.63 48.1981 1521.53 48.6662 1521.53 49.2154Z" fill="white"/>
<path d="M304.764 382.175L304.764 382.175L285.746 441.284C285.746 441.284 285.746 441.284 285.746 441.284C285.392 442.386 284.72 443.359 283.814 444.08C282.909 444.802 281.811 445.24 280.658 445.34C279.505 445.439 278.348 445.197 277.332 444.641C276.316 444.086 275.487 443.243 274.949 442.218L264.234 421.846C264.129 421.647 263.951 421.495 263.738 421.423L241.929 414.06C241.929 414.06 241.928 414.06 241.928 414.06C240.832 413.69 239.869 413.005 239.16 412.09C238.451 411.174 238.029 410.07 237.945 408.916C237.862 407.761 238.121 406.608 238.69 405.6C239.26 404.592 240.114 403.775 241.146 403.251L304.764 382.175ZM304.764 382.175C305.119 381.07 305.14 379.885 304.822 378.769C304.505 377.652 303.864 376.655 302.981 375.902C302.098 375.15 301.011 374.675 299.859 374.539C298.707 374.403 297.54 374.611 296.506 375.136C296.506 375.137 296.506 375.137 296.506 375.137C296.505 375.137 296.505 375.137 296.505 375.137L241.147 403.251L304.764 382.175Z" fill="#FFCC45" stroke="black" stroke-width="5"/>
<rect x="78.5" y="443.5" width="140.833" height="63.8333" rx="18.5" fill="#FFCC45"/>
<rect x="78.5" y="443.5" width="140.833" height="63.8333" rx="18.5" stroke="black" stroke-width="5"/>
<path d="M95.8676 485.417V466.243H103.788C105.223 466.243 106.462 466.524 107.505 467.086C108.553 467.641 109.361 468.418 109.929 469.417C110.497 470.409 110.781 471.564 110.781 472.881C110.781 474.204 110.491 475.362 109.911 476.354C109.336 477.34 108.516 478.105 107.448 478.648C106.381 479.191 105.114 479.462 103.647 479.462H98.7605V475.811H102.786C103.485 475.811 104.069 475.689 104.537 475.446C105.011 475.203 105.37 474.862 105.613 474.426C105.857 473.982 105.979 473.468 105.979 472.881C105.979 472.288 105.857 471.776 105.613 471.345C105.37 470.909 105.011 470.572 104.537 470.334C104.062 470.097 103.479 469.979 102.786 469.979H100.502V485.417H95.8676ZM116.604 485.66C115.687 485.66 114.872 485.507 114.161 485.201C113.456 484.889 112.897 484.421 112.485 483.797C112.079 483.167 111.877 482.377 111.877 481.428C111.877 480.629 112.017 479.955 112.298 479.406C112.579 478.857 112.966 478.411 113.459 478.067C113.952 477.724 114.52 477.465 115.163 477.29C115.805 477.109 116.492 476.988 117.222 476.925C118.04 476.85 118.698 476.772 119.198 476.691C119.697 476.604 120.059 476.482 120.284 476.326C120.515 476.164 120.63 475.936 120.63 475.643V475.596C120.63 475.115 120.465 474.744 120.134 474.482C119.803 474.22 119.357 474.089 118.795 474.089C118.19 474.089 117.703 474.22 117.335 474.482C116.966 474.744 116.732 475.106 116.632 475.568L112.41 475.418C112.535 474.544 112.856 473.764 113.374 473.077C113.899 472.385 114.617 471.842 115.528 471.448C116.445 471.049 117.547 470.849 118.833 470.849C119.75 470.849 120.596 470.959 121.37 471.177C122.144 471.389 122.818 471.701 123.392 472.113C123.966 472.519 124.409 473.018 124.721 473.611C125.04 474.204 125.199 474.881 125.199 475.643V485.417H120.892V483.413H120.78C120.524 483.9 120.196 484.312 119.797 484.649C119.404 484.986 118.939 485.239 118.402 485.407C117.871 485.576 117.272 485.66 116.604 485.66ZM118.018 482.664C118.511 482.664 118.954 482.564 119.347 482.365C119.747 482.165 120.065 481.89 120.302 481.541C120.54 481.185 120.658 480.773 120.658 480.305V478.938C120.527 479.007 120.368 479.069 120.181 479.125C120 479.181 119.8 479.234 119.581 479.284C119.363 479.334 119.138 479.378 118.907 479.415C118.676 479.453 118.455 479.487 118.243 479.518C117.812 479.587 117.444 479.693 117.138 479.837C116.838 479.98 116.607 480.168 116.445 480.398C116.289 480.623 116.211 480.892 116.211 481.204C116.211 481.678 116.38 482.04 116.717 482.29C117.06 482.539 117.494 482.664 118.018 482.664ZM136.115 471.037V474.407H127.043V471.037H136.115ZM128.943 467.591H133.521V480.895C133.521 481.176 133.565 481.403 133.653 481.578C133.746 481.747 133.88 481.868 134.055 481.943C134.23 482.012 134.439 482.046 134.682 482.046C134.857 482.046 135.041 482.031 135.235 481.999C135.434 481.962 135.584 481.931 135.684 481.906L136.377 485.211C136.158 485.273 135.849 485.351 135.45 485.445C135.057 485.538 134.586 485.598 134.036 485.622C132.963 485.672 132.042 485.548 131.275 485.248C130.513 484.942 129.93 484.468 129.524 483.825C129.124 483.182 128.931 482.374 128.943 481.4V467.591ZM138.451 485.417V471.037H143.029V485.417H138.451ZM140.744 469.361C140.101 469.361 139.549 469.149 139.087 468.724C138.625 468.293 138.394 467.775 138.394 467.17C138.394 466.571 138.625 466.059 139.087 465.635C139.549 465.204 140.101 464.989 140.744 464.989C141.393 464.989 141.946 465.204 142.401 465.635C142.863 466.059 143.094 466.571 143.094 467.17C143.094 467.775 142.863 468.293 142.401 468.724C141.946 469.149 141.393 469.361 140.744 469.361ZM152.664 485.688C151.16 485.688 149.862 485.392 148.77 484.799C147.684 484.199 146.847 483.348 146.261 482.243C145.68 481.132 145.39 479.812 145.39 478.283C145.39 476.797 145.683 475.499 146.27 474.388C146.857 473.271 147.684 472.403 148.751 471.785C149.818 471.161 151.076 470.849 152.524 470.849C153.547 470.849 154.484 471.008 155.332 471.327C156.181 471.645 156.915 472.116 157.533 472.74C158.15 473.365 158.631 474.135 158.974 475.053C159.318 475.964 159.489 477.009 159.489 478.189V479.331H146.991V476.672H155.23C155.223 476.186 155.108 475.752 154.883 475.371C154.658 474.99 154.349 474.694 153.956 474.482C153.569 474.263 153.123 474.154 152.618 474.154C152.106 474.154 151.647 474.27 151.241 474.5C150.836 474.725 150.514 475.034 150.277 475.427C150.04 475.814 149.915 476.254 149.903 476.747V479.453C149.903 480.04 150.018 480.555 150.249 480.998C150.48 481.435 150.808 481.775 151.232 482.018C151.656 482.262 152.162 482.383 152.749 482.383C153.154 482.383 153.523 482.327 153.853 482.215C154.184 482.102 154.468 481.937 154.705 481.719C154.942 481.5 155.12 481.232 155.239 480.913L159.442 481.035C159.268 481.978 158.884 482.798 158.291 483.497C157.704 484.19 156.933 484.73 155.978 485.117C155.024 485.498 153.919 485.688 152.664 485.688ZM166.405 477.215V485.417H161.827V471.037H166.181V473.677H166.34C166.658 472.797 167.201 472.107 167.969 471.608C168.736 471.102 169.651 470.849 170.712 470.849C171.723 470.849 172.6 471.077 173.343 471.533C174.092 471.982 174.672 472.612 175.084 473.424C175.502 474.229 175.708 475.171 175.702 476.251V485.417H171.124V477.15C171.13 476.351 170.927 475.727 170.515 475.277C170.11 474.828 169.545 474.603 168.821 474.603C168.34 474.603 167.916 474.71 167.548 474.922C167.186 475.128 166.905 475.424 166.705 475.811C166.511 476.198 166.412 476.666 166.405 477.215ZM186.653 471.037V474.407H177.581V471.037H186.653ZM179.482 467.591H184.06V480.895C184.06 481.176 184.103 481.403 184.191 481.578C184.284 481.747 184.419 481.868 184.593 481.943C184.768 482.012 184.977 482.046 185.221 482.046C185.395 482.046 185.579 482.031 185.773 481.999C185.973 481.962 186.122 481.931 186.222 481.906L186.915 485.211C186.697 485.273 186.388 485.351 185.988 485.445C185.595 485.538 185.124 485.598 184.575 485.622C183.501 485.672 182.581 485.548 181.813 485.248C181.051 484.942 180.468 484.468 180.062 483.825C179.663 483.182 179.469 482.374 179.482 481.4V467.591ZM201.363 475.427L197.159 475.54C197.116 475.24 196.997 474.975 196.804 474.744C196.61 474.507 196.357 474.323 196.045 474.192C195.74 474.054 195.384 473.986 194.978 473.986C194.448 473.986 193.995 474.092 193.621 474.304C193.252 474.516 193.071 474.803 193.078 475.165C193.071 475.446 193.184 475.689 193.415 475.895C193.652 476.101 194.073 476.267 194.679 476.392L197.45 476.916C198.885 477.19 199.952 477.646 200.651 478.283C201.357 478.919 201.712 479.762 201.719 480.81C201.712 481.797 201.419 482.655 200.839 483.385C200.264 484.115 199.478 484.683 198.479 485.089C197.481 485.488 196.339 485.688 195.053 485.688C193 485.688 191.38 485.267 190.194 484.424C189.015 483.575 188.34 482.439 188.172 481.016L192.694 480.904C192.794 481.428 193.053 481.828 193.471 482.102C193.889 482.377 194.423 482.514 195.072 482.514C195.658 482.514 196.136 482.405 196.504 482.187C196.872 481.968 197.06 481.678 197.066 481.316C197.06 480.991 196.916 480.732 196.635 480.539C196.354 480.339 195.914 480.183 195.315 480.071L192.806 479.593C191.364 479.331 190.291 478.848 189.586 478.142C188.88 477.431 188.531 476.526 188.537 475.427C188.531 474.466 188.787 473.645 189.305 472.965C189.823 472.279 190.559 471.754 191.514 471.392C192.469 471.03 193.596 470.849 194.894 470.849C196.841 470.849 198.376 471.258 199.5 472.076C200.623 472.887 201.244 474.004 201.363 475.427Z" fill="black"/>
</g>
<defs>
<clipPath id="clip0_98_136">
<rect width="1728" height="812" fill="white"/>
</clipPath>
</defs>
</svg>
