<svg width="303" height="114" viewBox="0 0 303 114" fill="none" xmlns="http://www.w3.org/2000/svg">
<path d="M2.9774 66.2879C13.9373 63.7861 25.4535 60.0414 36.8783 63.3571C45.9516 65.9904 54.6155 79.3216 63.0778 90.1786C72.2047 101.888 83.2387 103.006 92.4657 103.479C98.9207 103.811 98.784 64.278 104.976 62.1803C110.088 60.4487 121.717 97.1642 126.895 96.0541C135.474 94.2149 144.058 118.803 151.249 109.748C155.997 103.769 158.735 66.6855 163.518 60.8624C176.431 45.1393 176.044 7.63217 191.104 2.44818C196.902 0.452309 213.892 19.1393 220.182 21.3435C225.133 23.0782 229.122 81.4208 234.039 85.3135C247.231 95.7572 261.205 57.4337 274.269 69.2138C282.907 77.0023 291.45 80.9995 300.075 84.1724" stroke="#0094FF" stroke-width="4" stroke-linecap="round"/>
</svg>
