<svg width="525" height="224" viewBox="0 0 525 224" fill="none" xmlns="http://www.w3.org/2000/svg">
<path d="M457.6 126.17C458.69 127.153 460.055 127.769 461.508 127.938L461.511 127.919C462.882 128.086 464.271 127.846 465.508 127.23C466.744 126.614 467.772 125.648 468.464 124.453L472.524 115.753C473.456 113.783 474.835 112.058 476.549 110.713C478.264 109.368 480.268 108.441 482.403 108.004L491.377 106.229C492.829 105.909 494.143 105.138 495.131 104.027C496.119 102.916 496.731 101.522 496.879 100.042C497.027 98.563 496.705 97.0746 495.957 95.7896C495.209 94.5045 494.074 93.4886 492.715 92.8868L484.519 89.0987C482.539 88.166 480.803 86.7842 479.45 85.0631C478.098 83.3421 477.165 81.3292 476.726 79.1844L474.95 70.2158C474.624 68.7823 473.86 67.4857 472.764 66.5062C471.668 65.5268 470.294 64.9131 468.833 64.7504C467.372 64.5878 465.897 64.8842 464.612 65.5986C463.327 66.313 462.297 67.4098 461.664 68.7367L457.791 77.1042C456.869 79.0255 455.523 80.7122 453.853 82.0373C452.184 83.3623 450.236 84.2911 448.155 84.7535L439.191 86.4911C437.749 86.8049 436.44 87.563 435.45 88.6588C434.461 89.7545 433.839 91.1329 433.673 92.6002C433.507 94.0675 433.805 95.5499 434.524 96.8392C435.244 98.1285 436.35 99.1598 437.686 99.7883L445.877 103.571C447.857 104.508 449.592 105.893 450.944 107.617C452.296 109.34 453.229 111.354 453.669 113.5L455.447 122.459C455.763 123.891 456.515 125.188 457.6 126.17ZM491.919 155.136C491.071 154.364 490.487 153.347 490.246 152.226L489.237 147.148C489.042 146.18 488.623 145.27 488.013 144.493C487.403 143.716 486.62 143.093 485.726 142.673L481.099 140.529C480.041 140.025 479.167 139.203 478.6 138.179C478.032 137.154 477.799 135.977 477.933 134.814C478.071 133.658 478.567 132.574 479.351 131.714C480.135 130.853 481.168 130.259 482.306 130.014L487.383 129.015C488.33 128.8 489.216 128.371 489.973 127.761C490.729 127.151 491.335 126.376 491.745 125.495L493.895 120.869C494.395 119.824 495.208 118.96 496.221 118.397C497.233 117.833 498.396 117.599 499.548 117.725C500.7 117.851 501.784 118.332 502.651 119.102C503.518 119.871 504.124 120.89 504.386 122.019L505.396 127.136C505.598 128.097 506.02 128.998 506.629 129.769C507.238 130.539 508.017 131.158 508.906 131.577L513.538 133.722C514.607 134.202 515.498 135.007 516.085 136.022C516.671 137.037 516.923 138.211 516.805 139.377C516.687 140.543 516.205 141.643 515.427 142.52C514.649 143.397 513.614 144.006 512.47 144.262L507.353 145.272C506.389 145.474 505.486 145.897 504.713 146.508C503.941 147.118 503.321 147.9 502.902 148.791L500.763 153.409C500.251 154.481 499.416 155.366 498.368 155.931C497.344 156.489 496.172 156.712 495.016 156.569C493.859 156.427 492.776 155.926 491.919 155.136Z" fill="#0094FF"/>
<path d="M299.708 136.583C309.373 136.548 318.822 133.724 326.921 128.45L329.833 126.542C331.451 125.445 332.963 124.201 334.352 122.826L336.461 120.818C338.228 119.015 339.84 117.067 341.281 114.994L341.883 114.19C343.509 111.792 344.889 109.235 346 106.559C346.362 105.814 346.664 105.042 346.904 104.249C347.738 102.196 348.41 100.081 348.912 97.923L349.515 95.4125C349.896 92.4161 350.03 89.3935 349.917 86.375V16.0834L319.792 46.2084H279.625L249.5 16.0834V86.375C249.5 99.6911 254.79 112.462 264.206 121.878C273.622 131.294 286.392 136.583 299.708 136.583ZM319.792 66.2917C321.778 66.2917 323.719 66.8806 325.371 67.984C327.022 69.0874 328.309 70.6557 329.069 72.4906C329.829 74.3255 330.028 76.3445 329.64 78.2924C329.253 80.2403 328.297 82.0296 326.892 83.4339C325.488 84.8383 323.699 85.7946 321.751 86.1821C319.803 86.5696 317.784 86.3707 315.949 85.6107C314.114 84.8506 312.546 83.5636 311.442 81.9122C310.339 80.2609 309.75 78.3194 309.75 76.3334C309.75 73.6702 310.808 71.116 312.691 69.2328C314.574 67.3497 317.128 66.2917 319.792 66.2917ZM279.625 66.2917C281.611 66.2917 283.553 66.8806 285.204 67.984C286.855 69.0874 288.142 70.6557 288.902 72.4906C289.662 74.3255 289.861 76.3445 289.474 78.2924C289.086 80.2403 288.13 82.0296 286.726 83.4339C285.321 84.8383 283.532 85.7946 281.584 86.1821C279.636 86.5696 277.617 86.3707 275.782 85.6107C273.947 84.8506 272.379 83.5636 271.276 81.9122C270.172 80.2609 269.583 78.3194 269.583 76.3334C269.583 73.6702 270.641 71.116 272.524 69.2328C274.408 67.3497 276.962 66.2917 279.625 66.2917Z" fill="#6E6E6E"/>
<path d="M239.458 216.917V166.708H209.333V216.917H179.208V115.496C174.101 114.754 169.22 112.893 164.915 110.046C160.61 107.199 156.987 103.437 154.305 99.0275C151.063 93.6883 149.263 87.5982 149.083 81.3542C149.266 76.3584 150.468 71.4526 152.616 66.9385C154.764 62.4245 157.813 58.3977 161.576 55.1057C165.338 51.8137 169.734 49.3262 174.493 47.7961C179.252 46.266 184.274 45.7257 189.25 46.2084C191.93 46.3694 194.613 45.9603 197.122 45.008C199.632 44.0557 201.911 42.5819 203.809 40.6838C205.707 38.7858 207.181 36.5067 208.133 33.9971C209.085 31.4875 209.495 28.8044 209.333 26.125C209.333 23.4618 210.391 20.9077 212.275 19.0245C214.158 17.1413 216.712 16.0834 219.375 16.0834C222.038 16.0834 224.593 17.1413 226.476 19.0245C228.359 20.9077 229.417 23.4618 229.417 26.125C229.569 31.4412 228.635 36.7326 226.67 41.6748C224.706 46.6171 221.753 51.1061 217.992 54.8668C214.231 58.6274 209.742 61.5805 204.8 63.5451C199.858 65.5097 194.566 66.4443 189.25 66.2917C171.075 66.2917 169.167 77.94 169.167 81.4546C169.167 84.9692 170.974 96.4167 189.25 96.4167H240.362C241.837 105.067 245.184 113.292 250.169 120.514C255.154 127.736 261.656 133.782 269.221 138.23C276.787 142.677 285.232 145.418 293.967 146.261C302.702 147.104 311.516 146.029 319.792 143.11V216.917H289.667V166.708H269.583V216.917H239.458Z" fill="#6E6E6E"/>
<path d="M61.5375 28.9248C61.6713 29.752 61.544 30.6002 61.1735 31.3517C60.8029 32.1032 60.2074 32.7205 59.4698 33.118L44.3546 41.4024L40.9966 58.3054C40.8286 59.1223 40.4146 59.8682 39.8103 60.4429C39.206 61.0177 38.4402 61.3937 37.6159 61.5204C36.7916 61.6472 35.9483 61.5186 35.1992 61.1521C34.4501 60.7855 33.8311 60.1984 33.4254 59.4698L25.1386 44.3394L8.23793 40.9966C7.42104 40.8286 6.67514 40.4147 6.10042 39.8103C5.5257 39.206 5.14971 38.4402 5.02294 37.6159C4.89618 36.7916 5.02472 35.9483 5.3913 35.1992C5.75788 34.4501 6.34493 33.8311 7.07359 33.4254L22.2039 25.1387L25.5467 8.23795C25.7147 7.42106 26.1287 6.67515 26.7331 6.10043C27.3374 5.52572 28.1032 5.14972 28.9274 5.02296C29.7517 4.89619 30.5951 5.02473 31.3442 5.39131C32.0933 5.75789 32.7123 6.34494 33.1179 7.07361L41.4047 22.204L58.3054 25.5467C59.1284 25.7042 59.8819 26.1141 60.4611 26.7195C61.0403 27.3249 61.4166 28.0957 61.5375 28.9248Z" fill="#0094FF"/>
<path d="M106.012 211.486C105.938 211.842 105.755 212.167 105.488 212.414C105.221 212.662 104.884 212.82 104.523 212.867L97.1054 213.886L93.123 220.224C92.9282 220.529 92.6446 220.768 92.3103 220.907C91.976 221.047 91.607 221.081 91.2529 221.004C90.8988 220.928 90.5765 220.745 90.3294 220.48C90.0822 220.216 89.9221 219.881 89.8704 219.523L88.8531 212.099L82.5135 208.123C82.208 207.928 81.9695 207.645 81.83 207.311C81.6905 206.976 81.6566 206.607 81.7329 206.253C81.8093 205.899 81.9921 205.577 82.257 205.33C82.5218 205.082 82.856 204.922 83.2145 204.871L90.6383 203.853L94.6142 197.514C94.809 197.208 95.0926 196.97 95.4269 196.83C95.7612 196.691 96.1302 196.657 96.4843 196.733C96.8384 196.809 97.1607 196.992 97.4078 197.257C97.655 197.522 97.8151 197.856 97.8668 198.215L98.8841 205.638L105.224 209.614C105.533 209.806 105.775 210.089 105.917 210.424C106.058 210.76 106.091 211.131 106.012 211.486Z" fill="#0094FF"/>
</svg>
