<svg width="67" height="66" viewBox="0 0 67 66" fill="none" xmlns="http://www.w3.org/2000/svg">
<g clip-path="url(#clip0_38_1836)">
<path fill-rule="evenodd" clip-rule="evenodd" d="M33.9695 12.0435C29.8995 12.0435 29.4925 12.4753 27.386 12.4753C25.6315 12.4753 20.3625 8.177 17.7307 8.177C15.0962 8.177 12.0245 9.72525 12.0245 14.194V19.3503C12.03 20.7033 12.5195 24.8503 14.4445 23.742C12.1702 26.4315 11.942 29.5693 11.9722 32.6053C11.359 32.7813 10.7347 32.982 10.127 33.1883C8.24596 33.8318 6.24946 34.6513 5.35021 35.2343C4.89072 35.5311 4.56797 35.9983 4.45297 36.5331C4.33796 37.0679 4.44011 37.6265 4.73696 38.086C5.0338 38.5455 5.50102 38.8682 6.03582 38.9832C6.57063 39.0983 7.12922 38.9961 7.58871 38.6993C8.01771 38.4215 9.57146 37.7368 11.4607 37.0905L12.0877 36.8843C12.2142 38.075 12.5305 39.1668 13.0007 40.1568L12.9347 40.1925C11.8072 40.7865 10.7622 41.4712 10.0967 41.9058L9.78596 42.1093C9.32647 42.4061 9.00372 42.8733 8.88872 43.4081C8.77371 43.9429 8.87586 44.5015 9.17271 44.961C9.46955 45.4205 9.93677 45.7432 10.4716 45.8582C11.0064 45.9733 11.565 45.8711 12.0245 45.5743L12.3847 45.3378C13.0585 44.8978 13.922 44.334 14.8625 43.839C15.0825 43.7208 15.2942 43.6162 15.4977 43.52C20.2552 47.9832 28.7995 49.427 33.9695 49.427C39.1395 49.427 47.6837 47.9832 52.4412 43.52C52.6447 43.6162 52.8537 43.7208 53.0765 43.839C54.017 44.334 54.8805 44.8978 55.5542 45.3378L55.9145 45.5743C56.3739 45.8711 56.9325 45.9733 57.4673 45.8582C58.0022 45.7432 58.4694 45.4205 58.7662 44.961C59.0631 44.5015 59.1652 43.9429 59.0502 43.4081C58.9352 42.8733 58.6124 42.4061 58.153 42.1093L57.8422 41.9058C56.9232 41.2911 55.9762 40.7194 55.0042 40.1925L54.9382 40.1568C55.4085 39.1668 55.7247 38.075 55.8512 36.8843L56.4782 37.0905C58.3675 37.7368 59.9212 38.4215 60.353 38.6993C60.8122 38.9795 61.3628 39.0691 61.8873 38.9491C62.4117 38.829 62.8685 38.5088 63.1602 38.0568C63.4519 37.6047 63.5554 37.0566 63.4486 36.5293C63.3419 36.002 63.0333 35.5372 62.5887 35.2343C61.6895 34.6513 59.693 33.8318 57.8147 33.1883C57.203 32.9797 56.5869 32.7844 55.9667 32.6025C55.9997 29.5665 55.7687 26.4315 53.4917 23.742C55.4167 24.8503 55.9117 20.7033 55.9145 19.3475V14.194C55.9145 9.72525 52.8427 8.177 50.2082 8.177C47.5765 8.177 42.3075 12.4753 40.5557 12.4753C38.4465 12.4753 38.0395 12.0435 33.9695 12.0435ZM32.1132 37.327C32.6687 37.1373 33.326 37.052 33.9695 37.052C34.613 37.052 35.2702 37.1373 35.8285 37.327C36.1035 37.4205 36.4335 37.569 36.7305 37.8055C36.9341 37.9591 37.1006 38.1564 37.2177 38.383C37.3348 38.6096 37.3995 38.8596 37.407 39.1145C37.407 39.747 37.0247 40.187 36.7305 40.4235C36.4362 40.66 36.1007 40.8085 35.8285 40.902C35.2274 41.0922 34.5998 41.185 33.9695 41.177C33.34 41.1852 32.7133 41.0924 32.1132 40.902C31.7862 40.7962 31.48 40.6343 31.2085 40.4235C31.0048 40.2699 30.8383 40.0726 30.7212 39.846C30.6041 39.6194 30.5395 39.3694 30.532 39.1145C30.532 38.482 30.9142 38.042 31.2085 37.8055C31.5027 37.569 31.841 37.4205 32.1132 37.327ZM39.937 28.802C40.3137 28.175 41.0535 27.427 42.1645 27.427C43.2755 27.427 44.018 28.175 44.392 28.802C44.7825 29.4593 44.9695 30.2513 44.9695 31.0378C44.9695 31.8215 44.7825 32.6135 44.392 33.268C44.018 33.8978 43.2755 34.6458 42.1645 34.6458C41.0535 34.6458 40.3137 33.8978 39.937 33.2708C39.5488 32.5912 39.3494 31.8203 39.3595 31.0378C39.3595 30.2513 39.5465 29.4593 39.937 28.8048M23.547 28.8048C23.9237 28.1778 24.6635 27.4298 25.7745 27.4298C26.8855 27.4298 27.628 28.1778 28.002 28.8048C28.3925 29.462 28.5795 30.254 28.5795 31.0405C28.5795 31.8243 28.3925 32.6163 28.002 33.2708C27.628 33.9005 26.8855 34.6485 25.7745 34.6485C24.6635 34.6485 23.9237 33.9005 23.547 33.2735C23.1588 32.594 22.9594 31.823 22.9695 31.0405C22.9695 30.254 23.1565 29.4593 23.547 28.8048Z" fill="#6E6E6E"/>
<g clip-path="url(#clip1_38_1836)">
<path d="M56.2655 62.9513C55.3127 60.7436 52.5939 54.8308 50.3655 49.9688C52.4573 49.1588 54.1374 48.485 54.9394 48.0992C59.8158 45.7573 59.4256 42.7393 58.4936 39.9265C57.5581 37.1103 57.7764 35.8098 52.3935 33.496C47.0085 31.1813 46.2184 32.2361 43.5386 33.4999C40.8579 34.7599 38.4085 36.5573 40.0755 41.7117C40.3498 42.5585 41.0196 44.2441 41.8776 46.322C36.8242 48.0523 30.6739 50.1545 28.4207 50.9841C27.8971 51.1765 27.6711 51.7979 27.7704 52.5557C27.8465 53.1393 28.0145 55.6751 28.086 56.2225C28.1757 56.9266 29.0776 57.795 30.3203 57.3403C31.0373 57.0771 37.9686 54.5972 44.3755 52.2237C47.0727 58.5088 50.0575 65.2528 50.3612 65.9547C50.8867 67.1695 52.1383 67.2268 52.7093 66.8067C53.1551 66.4799 55.1041 64.8558 55.5786 64.5088C56.1915 64.0554 56.4873 63.464 56.2655 62.9513ZM47.3072 43.2326C45.9637 40.1162 45.4142 36.9254 45.4142 36.9254C45.4142 36.9254 46.7725 36.2124 50.5376 37.8308C54.3027 39.4492 54.7232 40.9268 54.7232 40.9268C54.7232 40.9268 52.0327 42.7249 48.8552 43.898L47.7748 44.2839C47.6157 43.9336 47.4599 43.5832 47.3072 43.2326Z" fill="#0094FF"/>
</g>
</g>
<defs>
<clipPath id="clip0_38_1836">
<rect width="66" height="66" fill="white" transform="translate(0.902832)"/>
</clipPath>
<clipPath id="clip1_38_1836">
<rect width="46.7121" height="31.8512" fill="white" transform="translate(32.5027 22.7872) rotate(26.8035)"/>
</clipPath>
</defs>
</svg>
